<?xml version="1.0" encoding="UTF-8"?>
<svg width="752pt" height="752pt" version="1.1" viewBox="0 0 752 752" xmlns="http://www.w3.org/2000/svg">
 <path d="m589.1 230.76c-19.684 23.887 1.2891 57.336-0.050781 63.285-27.043 12.035-14.457 45.219-18.562 53.738-20.809 4.7031-21.648 38.562-25.809 45.211-17.547 3.5039-28.461 37.949-36.668 44.406-16.375-3.9844-44.719 21.586-54.121 24.82-16.512-2.3945-57.898 21.117-68.695 25.141-17.082-6.6445-51.781 14.555-61.578 16.906-15.277-8.9844-42.254 9.1875-49.727 11.59-15.977-8.1797-46.941 9.0156-54.027 9.875-25.988-2.0586-56.816 42.062-56.91 41.922-0.027344-0.050781-4.6641-54.617 75.305-137.44 12.594-13.18 114.97-93.211 129.38-89.48-10.289-8.0273-59.016 20.277-66.219 24.059-33.188 16.355-75.152 44.105-117.61 90.473 0 0-1.6758-34.852-3.2344-67.926 11.426-4.6914 13.676-54.598 18.859-62.754 11.438 0.95703 28.504-41.016 36.641-49.926 15.164 2.1992 54.941-40.402 69.43-45.008 12.461 9.3906 73.66-24.773 87.238-27.836 11.008 17.312 68.516-17.344 81.758-17.371-1.0742 25.578 47.688-1.9258 56.016 0-2.2148 9.0273 23.234 16.91 35.973 0.56641 8.7461 7.8555-4.2383 49.918 22.617 45.746z" fill="#166434"/>
</svg>
